<svg xmlns="http://www.w3.org/2000/svg" viewBox="0 0 28 28">
	<g transform="translate(-4.75 -4.75)">
		<path d="M32.337 48.726h-7l-.673-9.8a1.252 1.252 0 0 0-2.5 0l-.673 9.8H5.164a.414.414 0 0 0-.414.414v6.994a.414.414 0 0 0 .414.414h2.951v1a.414.414 0 0 0 .414.414h2.835a.414.414 0 0 0 .414-.414v-1.002h13.944v1.006a.414.414 0 0 0 .414.414h2.835a.414.414 0 0 0 .414-.414v-1.006h2.952a.414.414 0 0 0 .414-.414V49.14a.414.414 0 0 0-.414-.414zm-21.386 8.412H8.942v-.591h2.008zm17.607 0h-2.009v-.591h2.008zm-5.565-18.154a.425.425 0 0 1 .848 0l.669 9.742h-2.186zm8.93 16.734H5.577v-6.165h26.346z" class="prefix__cls-1" data-name="Path 1691" transform="translate(0 -25.215)" />
		<path d="M39.01 93.7a.414.414 0 0 0-.414.413v2.481a.414.414 0 0 0 .827 0v-2.481a.413.413 0 0 0-.413-.413z" class="prefix__cls-1" data-name="Path 1692" transform="translate(-25.849 -67.932)" />
		<path d="M31.01 93.7a.414.414 0 0 0-.414.413v2.481a.414.414 0 0 0 .827 0v-2.481a.414.414 0 0 0-.413-.413z" class="prefix__cls-1" data-name="Path 1693" transform="translate(-19.739 -67.932)" />
		<path d="M23.01 93.7a.414.414 0 0 0-.414.413v2.481a.414.414 0 0 0 .827 0v-2.481a.414.414 0 0 0-.413-.413z" class="prefix__cls-1" data-name="Path 1694" transform="translate(-13.629 -67.932)" />
		<path d="M50.468 10.027a.414.414 0 0 0 .56-.169 8.091 8.091 0 0 1 14.276 0 .413.413 0 1 0 .729-.391 8.918 8.918 0 0 0-15.733 0 .414.414 0 0 0 .168.56z" class="prefix__cls-1" data-name="Path 1695" transform="translate(-34.749)" />
		<path d="M69.241 17.572a5.608 5.608 0 0 1 .713 1.036.414.414 0 1 0 .73-.389 6.432 6.432 0 0 0-.818-1.189 6.548 6.548 0 0 0-9.93 0 6.429 6.429 0 0 0-.818 1.189.414.414 0 1 0 .73.389 5.606 5.606 0 0 1 .714-1.037 5.721 5.721 0 0 1 8.68 0z" class="prefix__cls-1" data-name="Path 1696" transform="translate(-41.484 -7.638)" />
		<path d="M74.333 25.753a4.2 4.2 0 0 0-6.392 1.233.414.414 0 1 0 .729.391 3.371 3.371 0 0 1 5.939 0 .414.414 0 0 0 .728-.391 4.147 4.147 0 0 0-1-1.233z" class="prefix__cls-1" data-name="Path 1697" transform="translate(-48.222 -15.293)" />
		<path d="M105.651 98.192a1.122 1.122 0 1 0-1.122-1.122 1.122 1.122 0 0 0 1.122 1.122zm0-1.418a.3.3 0 1 1-.3.3.3.3 0 0 1 .3-.3z" class="prefix__cls-1" data-name="Path 1698" transform="translate(-76.203 -69.648)" />
		<path d="M88.9 97.072a1.122 1.122 0 1 0 1.122-1.122 1.122 1.122 0 0 0-1.122 1.122zm1.122-.3a.294.294 0 1 1-.209.086.3.3 0 0 1 .209-.086z" class="prefix__cls-1" data-name="Path 1699" transform="translate(-64.266 -69.651)" />
	</g>
</svg>
